<?xml version="1.0" encoding="UTF-8"?>
<svg width="385px" height="385px" viewBox="0 0 385 385" version="1.1" xmlns="http://www.w3.org/2000/svg" xmlns:xlink="http://www.w3.org/1999/xlink">
    <title>Group</title>
    <g id="Page-1" stroke="none" stroke-width="1" fill="none" fill-rule="evenodd">
        <g id="Artboard" transform="translate(-193.000000, -307.000000)">
            <g id="Group" transform="translate(193.000000, 307.000000)">
                <g id="Group-3" fill="#1940ED">
                    <rect id="Rectangle" x="0" y="0" width="385" height="385" rx="67.3181755"></rect>
                </g>
                <g id="3" transform="translate(107.000000, 81.000000)" fill="#F6F5FA" fill-rule="nonzero">
                    <path d="M80.284658,123.89907 C107.783734,123.89907 118.530499,139.702523 118.530499,158.350598 C118.530499,179.211155 104.939002,192.802125 85.025878,192.802125 C64.4805915,192.802125 50.5730129,180.475432 50.5730129,157.40239 L0,157.40239 C0,210.185923 38.245841,238 83.7615527,238 C131.173752,238 171,207.97344 171,158.666667 C171,118.841965 145.397412,93.5564409 113.789279,84.0743692 L163.097967,40.7729084 L163.097967,0 L10.7467652,0 L10.7467652,44.8818061 L98.9334566,44.8818061 L48.0443623,89.4475432 C47.4121996,90.0796813 46.780037,90.3957503 46.1478743,91.0278884 L46.1478743,123.89907 L80.284658,123.89907 Z" id="Path"></path>
                </g>
            </g>
        </g>
    </g>
</svg>