<?xml version="1.0" encoding="UTF-8"?>
<svg width="385px" height="385px" viewBox="0 0 385 385" version="1.1" xmlns="http://www.w3.org/2000/svg" xmlns:xlink="http://www.w3.org/1999/xlink">
    <title>Group</title>
    <g id="Page-1" stroke="none" stroke-width="1" fill="none" fill-rule="evenodd">
        <g id="Artboard" transform="translate(-193.000000, -307.000000)">
            <g id="Group" transform="translate(193.000000, 307.000000)">
                <g id="Group-3" fill="#1940ED">
                    <rect id="Rectangle" x="0" y="0" width="385" height="385" rx="67.3181755"></rect>
                </g>
                <g id="3" transform="translate(91.913764, 64.476811)" fill="#F6F5FA" fill-rule="nonzero">
                    <path d="M92.5120136,142.774446 C124.199199,142.774446 136.582697,160.985472 136.582697,182.474483 C136.582697,206.513038 120.921215,222.174521 97.9753215,222.174521 C74.3009873,222.174521 58.2752841,207.96992 58.2752841,181.381822 L5.68434189e-14,181.381822 C5.68434189e-14,242.20665 44.0706836,274.258056 96.5184393,274.258056 C151.151518,274.258056 197.043304,239.657106 197.043304,182.838704 C197.043304,136.946918 167.541442,107.809276 131.119389,96.8826599 L187.937791,46.9844478 L187.937791,0 L12.3834979,0 L12.3834979,51.7193147 L114.001025,51.7193147 L55.3615199,103.074409 C54.6330789,103.80285 53.9046378,104.16707 53.1761968,104.895511 L53.1761968,142.774446 L92.5120136,142.774446 Z" id="Path"></path>
                </g>
            </g>
        </g>
    </g>
</svg>